<mxfile host="app.diagrams.net" modified="2022-03-03T09:07:24.376Z" agent="5.0 (X11; Linux x86_64) AppleWebKit/537.36 (KHTML, like Gecko) Chrome/98.0.4758.102 Safari/537.36" etag="wrsgz4P1Ev3ZNljqxXqy" version="16.6.2" type="github">
  <diagram id="BklQaVtGM8fSrPV8Rhf6" name="Page-1">
    <mxGraphModel dx="1590" dy="712" grid="1" gridSize="10" guides="1" tooltips="1" connect="1" arrows="1" fold="1" page="1" pageScale="1" pageWidth="1169" pageHeight="827" math="0" shadow="0">
      <root>
        <mxCell id="0" />
        <mxCell id="1" parent="0" />
        <mxCell id="PsDBKPRxNrMTrped_dBO-1" value="" style="edgeStyle=orthogonalEdgeStyle;rounded=0;orthogonalLoop=1;jettySize=auto;html=1;" edge="1" parent="1" source="PsDBKPRxNrMTrped_dBO-2" target="PsDBKPRxNrMTrped_dBO-4">
          <mxGeometry relative="1" as="geometry" />
        </mxCell>
        <mxCell id="PsDBKPRxNrMTrped_dBO-2" value="JDBC" style="rounded=1;whiteSpace=wrap;html=1;shadow=1;glass=0;hachureGap=4;pointerEvents=0;strokeWidth=1;fillColor=#f0a30a;strokeColor=#BD7000;fontColor=#000000;sketch=0;" vertex="1" parent="1">
          <mxGeometry x="211" y="164" width="90" height="36" as="geometry" />
        </mxCell>
        <mxCell id="PsDBKPRxNrMTrped_dBO-3" value="" style="edgeStyle=orthogonalEdgeStyle;rounded=0;orthogonalLoop=1;jettySize=auto;html=1;" edge="1" parent="1" source="PsDBKPRxNrMTrped_dBO-4" target="PsDBKPRxNrMTrped_dBO-6">
          <mxGeometry relative="1" as="geometry" />
        </mxCell>
        <mxCell id="PsDBKPRxNrMTrped_dBO-4" value="Parser" style="rounded=1;whiteSpace=wrap;html=1;shadow=1;glass=0;hachureGap=4;pointerEvents=0;strokeWidth=1;fillColor=#FFFF99;strokeColor=#BD7000;fontColor=#000000;sketch=0;" vertex="1" parent="1">
          <mxGeometry x="354" y="164" width="90" height="36" as="geometry" />
        </mxCell>
        <mxCell id="PsDBKPRxNrMTrped_dBO-5" value="" style="edgeStyle=orthogonalEdgeStyle;rounded=0;orthogonalLoop=1;jettySize=auto;html=1;" edge="1" parent="1" source="PsDBKPRxNrMTrped_dBO-6" target="PsDBKPRxNrMTrped_dBO-8">
          <mxGeometry relative="1" as="geometry" />
        </mxCell>
        <mxCell id="PsDBKPRxNrMTrped_dBO-6" value="Validate" style="rounded=1;whiteSpace=wrap;html=1;shadow=1;glass=0;hachureGap=4;pointerEvents=0;strokeWidth=1;fillColor=#E6D0DE;strokeColor=#BD7000;fontColor=#000000;sketch=0;" vertex="1" parent="1">
          <mxGeometry x="500" y="164" width="90" height="36" as="geometry" />
        </mxCell>
        <mxCell id="PsDBKPRxNrMTrped_dBO-7" value="" style="edgeStyle=orthogonalEdgeStyle;rounded=0;orthogonalLoop=1;jettySize=auto;html=1;" edge="1" parent="1" source="PsDBKPRxNrMTrped_dBO-8" target="PsDBKPRxNrMTrped_dBO-10">
          <mxGeometry relative="1" as="geometry" />
        </mxCell>
        <mxCell id="PsDBKPRxNrMTrped_dBO-8" value="Optimize" style="rounded=1;whiteSpace=wrap;html=1;shadow=1;glass=0;hachureGap=4;pointerEvents=0;strokeWidth=1;fillColor=#D4E1F5;strokeColor=#BD7000;fontColor=#000000;sketch=0;" vertex="1" parent="1">
          <mxGeometry x="657" y="164" width="90" height="36" as="geometry" />
        </mxCell>
        <mxCell id="PsDBKPRxNrMTrped_dBO-9" value="" style="edgeStyle=orthogonalEdgeStyle;rounded=0;orthogonalLoop=1;jettySize=auto;html=1;" edge="1" parent="1" source="PsDBKPRxNrMTrped_dBO-10" target="PsDBKPRxNrMTrped_dBO-12">
          <mxGeometry relative="1" as="geometry" />
        </mxCell>
        <mxCell id="PsDBKPRxNrMTrped_dBO-10" value="Execute" style="rounded=1;whiteSpace=wrap;html=1;shadow=1;glass=0;hachureGap=4;pointerEvents=0;strokeWidth=1;fillColor=#D5E8D4;strokeColor=#BD7000;fontColor=#000000;sketch=0;" vertex="1" parent="1">
          <mxGeometry x="657" y="266" width="90" height="36" as="geometry" />
        </mxCell>
        <mxCell id="PsDBKPRxNrMTrped_dBO-11" value="" style="edgeStyle=orthogonalEdgeStyle;rounded=0;orthogonalLoop=1;jettySize=auto;html=1;" edge="1" parent="1" source="PsDBKPRxNrMTrped_dBO-12" target="PsDBKPRxNrMTrped_dBO-14">
          <mxGeometry relative="1" as="geometry" />
        </mxCell>
        <mxCell id="PsDBKPRxNrMTrped_dBO-12" value="Data Process" style="rounded=1;whiteSpace=wrap;html=1;shadow=1;glass=0;hachureGap=4;pointerEvents=0;strokeWidth=1;fillColor=#97D077;strokeColor=#BD7000;fontColor=#000000;sketch=0;" vertex="1" parent="1">
          <mxGeometry x="500" y="266" width="90" height="36" as="geometry" />
        </mxCell>
        <mxCell id="PsDBKPRxNrMTrped_dBO-13" value="" style="edgeStyle=orthogonalEdgeStyle;rounded=0;orthogonalLoop=1;jettySize=auto;html=1;" edge="1" parent="1" source="PsDBKPRxNrMTrped_dBO-14" target="PsDBKPRxNrMTrped_dBO-15">
          <mxGeometry relative="1" as="geometry" />
        </mxCell>
        <mxCell id="PsDBKPRxNrMTrped_dBO-14" value="Key Value API" style="rounded=1;whiteSpace=wrap;html=1;shadow=1;glass=0;hachureGap=4;pointerEvents=0;strokeWidth=1;fillColor=#FF99FF;strokeColor=#BD7000;fontColor=#000000;sketch=0;" vertex="1" parent="1">
          <mxGeometry x="354" y="266" width="90" height="36" as="geometry" />
        </mxCell>
        <mxCell id="PsDBKPRxNrMTrped_dBO-15" value="Storage" style="rounded=1;whiteSpace=wrap;html=1;shadow=1;glass=0;hachureGap=4;pointerEvents=0;strokeWidth=1;fillColor=#CCCCCC;strokeColor=#BD7000;fontColor=#000000;sketch=0;" vertex="1" parent="1">
          <mxGeometry x="211" y="266" width="90" height="36" as="geometry" />
        </mxCell>
      </root>
    </mxGraphModel>
  </diagram>
</mxfile>
